<svg xmlns="http://www.w3.org/2000/svg" data-name="Layer 1" viewBox="0 0 100 125" x="0px" y="0px" fill="#ffffff"><defs><style>.cls-1,.cls-2,.cls-3{fill:#ffffff;stroke:#ffffff;stroke-width:2px;}.cls-1,.cls-3{stroke-linecap:round;}.cls-1,.cls-2{stroke-miterlimit:10;}.cls-3{stroke-linejoin:round;}</style></defs><title>Сравнить</title><line class="cls-1" x1="49.69" y1="71.61" x2="49.69" y2="34.92"/><line class="cls-1" x1="46.97" y1="31.92" x2="30.42" y2="34.57"/><line class="cls-1" x1="68.96" y1="28.39" x2="52.41" y2="31.04"/><circle class="cls-2" cx="49.69" cy="31.48" r="2.76"/><path class="cls-3" d="M59.68,47.45a6.32,6.32,0,0,0,12.64,0C72.32,44,66,33.24,66,33.24S59.68,44,59.68,47.45Z"/><path d="M59.68,48.57c0,2.82,2.83,5.11,6.32,5.11s6.32-2.29,6.32-5.11a4.55,4.55,0,0,0-.3-1.4H60A4.55,4.55,0,0,0,59.68,48.57Z"/><path class="cls-3" d="M27.68,52.45a6.32,6.32,0,0,0,12.64,0C40.32,49,34,38.24,34,38.24S27.68,49,27.68,52.45Z"/><path d="M27.68,52.45a6.32,6.32,0,0,0,12.64,0,6.6,6.6,0,0,0-.3-1.71H28A6.6,6.6,0,0,0,27.68,52.45Z"/><line class="cls-3" x1="40.03" y1="71.61" x2="59.36" y2="71.61"/></svg>