<svg xmlns="http://www.w3.org/2000/svg" xmlns:xlink="http://www.w3.org/1999/xlink" version="1.1" x="0px" y="0px" viewBox="0 0 100 125" style="enable-background:new 0 0 100 100;" xml:space="preserve">
<g>
<path fill="#fd9d05" d="M57.46,5.023c-1.104,0.042-1.975,0.97-1.924,2.074c0.042,1.104,0.974,1.97,2.073,1.924   c8.676-0.353,17.331,3.177,23.762,9.607c6.431,6.432,9.933,15.092,9.608,23.762c-0.042,1.104,0.82,2.032,1.924,2.074   c0.025,0.001,0.051,0.001,0.076,0.001c1.07,0,1.957-0.847,1.997-1.925c0.366-9.778-3.562-19.525-10.777-26.74   C76.984,8.585,67.232,4.655,57.46,5.023z"/>
<path fill="#fd9d05" d="M71.436,28.564c3.548,3.548,5.622,8.223,5.997,13.52c0.075,1.054,0.953,1.858,1.993,1.858c0.047,0,0.095-0.002,0.144-0.005   c1.102-0.078,1.932-1.035,1.854-2.137c-0.445-6.271-2.92-11.826-7.159-16.064c-4.239-4.239-9.793-6.715-16.064-7.159   c-1.1-0.068-2.059,0.752-2.136,1.854c-0.078,1.103,0.752,2.059,1.854,2.137C63.213,22.942,67.887,25.017,71.436,28.564z"/>
<path fill="#fd9d05" d="M80.33,60.771c-2.198-2.198-5.12-3.408-8.228-3.408s-6.03,1.21-8.228,3.408l-3.576,3.575   c-1.657,1.657-4.282,1.866-6.241,0.496c-3.634-2.542-7.09-5.445-10.273-8.628l0,0c-3.186-3.187-6.089-6.643-8.627-10.272   c-1.37-1.959-1.162-4.584,0.496-6.241l3.575-3.576c4.537-4.536,4.537-11.918,0-16.454l-8.08-8.08   c-2.197-2.197-5.119-3.408-8.228-3.408c-3.108,0-6.03,1.211-8.227,3.408l-3.684,3.683c-4.558,4.56-6.725,10.96-5.797,17.121   c1.278,8.489,4.437,17.164,9.131,25.08c3.369,5.713,7.516,11.047,12.325,15.856c4.808,4.808,10.142,8.954,15.852,12.322   c7.921,4.697,16.595,7.855,25.083,9.133c0.941,0.142,1.887,0.212,2.832,0.212c5.242,0,10.428-2.146,14.29-6.01l3.683-3.683   c2.198-2.197,3.408-5.119,3.408-8.228c0-3.107-1.21-6.029-3.408-8.228L80.33,60.771z M85.581,82.478l-3.684,3.683   c-3.664,3.666-8.784,5.411-13.697,4.671c-7.984-1.202-16.158-4.183-23.644-8.621c-5.423-3.199-10.49-7.138-15.06-11.707   c-4.571-4.571-8.51-9.638-11.71-15.064c-4.436-7.48-7.416-15.655-8.619-23.64c-0.739-4.911,1.007-10.032,4.671-13.697l3.683-3.683   c2.978-2.977,7.821-2.977,10.798,0l8.08,8.08c2.977,2.977,2.977,7.821,0,10.798l-3.575,3.576   c-3.032,3.031-3.429,7.811-0.945,11.362c2.672,3.82,5.726,7.457,9.076,10.808l1.415-1.414l-1.414,1.414   c3.347,3.348,6.984,6.401,10.809,9.077c3.553,2.485,8.332,2.087,11.362-0.945l3.576-3.575c1.442-1.442,3.36-2.236,5.399-2.236   s3.957,0.794,5.399,2.236l8.08,8.079c1.442,1.442,2.236,3.36,2.236,5.399C87.817,79.118,87.023,81.035,85.581,82.478z"/></g></svg>