<?xml version="1.0" encoding="utf-8"?><!DOCTYPE svg PUBLIC "-//W3C//DTD SVG 1.1//EN" "http://www.w3.org/Graphics/SVG/1.1/DTD/svg11.dtd"><svg viewBox="0 0 100 125" xmlns="http://www.w3.org/2000/svg" xmlns:xlink="http://www.w3.org/1999/xlink"><style>:root>svg{display:none}:root>svg:target{display:block}</style><svg viewBox="0 0 32 32" id="anchor" xmlns="http://www.w3.org/2000/svg"><path d="M16 1L1 16h9v16h12V16h9z"/></svg><svg viewBox="0 0 20 20" id="arrow" xmlns="http://www.w3.org/2000/svg"><path d="M19.354 10.146l-6-6a.5.5 0 00-.707.707l5.146 5.146H1.5a.5.5 0 000 1h16.293l-5.146 5.146a.5.5 0 00.708.707l6-6a.5.5 0 000-.707z"/></svg><svg viewBox="0 0 32 28" id="basket" xmlns="http://www.w3.org/2000/svg"><path d="M30 12c1.109 0 2 .891 2 2s-.891 2-2 2h-.234l-1.797 10.344c-.172.953-1 1.656-1.969 1.656H6a2.009 2.009 0 01-1.969-1.656L2.234 16H2c-1.109 0-2-.891-2-2s.891-2 2-2h28zM7.578 24.5a1.01 1.01 0 00.922-1.078l-.5-6.5c-.047-.547-.531-.969-1.078-.922s-.969.531-.922 1.078l.5 6.5c.047.516.484.922 1 .922h.078zm6.422-1V17c0-.547-.453-1-1-1s-1 .453-1 1v6.5c0 .547.453 1 1 1s1-.453 1-1zm6 0V17c0-.547-.453-1-1-1s-1 .453-1 1v6.5c0 .547.453 1 1 1s1-.453 1-1zm5.5.078l.5-6.5c.047-.547-.375-1.031-.922-1.078s-1.031.375-1.078.922l-.5 6.5a1.01 1.01 0 00.922 1.078h.078c.516 0 .953-.406 1-.922zM7.438 4.562L5.985 11H3.922L5.5 4.109A3.966 3.966 0 019.391 1H12c0-.547.453-1 1-1h6c.547 0 1 .453 1 1h2.609A3.966 3.966 0 0126.5 4.109L28.078 11h-2.063l-1.453-6.438a2.004 2.004 0 00-1.953-1.563H20c0 .547-.453 1-1 1h-6c-.547 0-1-.453-1-1H9.391c-.938 0-1.734.641-1.953 1.563z"/></svg><svg viewBox="0 0 20 20" id="chevron" xmlns="http://www.w3.org/2000/svg"><path d="M5 20a.5.5 0 01-.354-.853l8.646-8.646-8.646-8.646a.5.5 0 01.707-.707l9 9a.5.5 0 010 .707l-9 9a.498.498 0 01-.354.146z"/></svg><svg viewBox="0 0 16 28" id="facebook" xmlns="http://www.w3.org/2000/svg"><path d="M14.984.187v4.125h-2.453c-1.922 0-2.281.922-2.281 2.25v2.953h4.578l-.609 4.625H10.25v11.859H5.469V14.14H1.485V9.515h3.984V6.109C5.469 2.156 7.891 0 11.422 0c1.687 0 3.141.125 3.563.187z"/></svg><svg viewBox="0 0 20 20" id="input" xmlns="http://www.w3.org/2000/svg"><path fill="#fd9d05" d="M16.218 3.782C14.424 1.988 12.038 1 9.5 1s-4.923.988-6.718 2.782S0 7.962 0 10.499s.988 4.923 2.782 6.718 4.18 2.782 6.718 2.782 4.923-.988 6.718-2.782S19 13.037 19 10.499s-.988-4.923-2.782-6.717zM9.5 19C4.813 19 1 15.187 1 10.5S4.813 2 9.5 2c4.687 0 8.5 3.813 8.5 8.5S14.187 19 9.5 19z"/><path fill="#fd9d05" d="M15.353 10.147l-4-4a.5.5 0 00-.707.707L13.793 10H3.5a.5.5 0 000 1h10.293l-3.146 3.147a.5.5 0 00.706.706l4-4a.5.5 0 000-.707z"/></svg><svg data-name="Layer 1" viewBox="0 0 100 125" fill="#fff" id="libra" xmlns="http://www.w3.org/2000/svg"><defs><style>.gcls-1,.gcls-2,.gcls-3{fill:#fff;stroke:#fff;stroke-width:2px}.gcls-1,.gcls-3{stroke-linecap:round}.gcls-1,.gcls-2{stroke-miterlimit:10}.gcls-3{stroke-linejoin:round}</style></defs><path class="gcls-1" d="M49.69 71.61V34.92M46.97 31.92l-16.55 2.65M68.96 28.39l-16.55 2.65"/><circle class="gcls-2" cx="49.69" cy="31.48" r="2.76"/><path class="gcls-3" d="M59.68 47.45a6.32 6.32 0 0012.64 0C72.32 44 66 33.24 66 33.24S59.68 44 59.68 47.45z"/><path d="M59.68 48.57c0 2.82 2.83 5.11 6.32 5.11s6.32-2.29 6.32-5.11a4.55 4.55 0 00-.3-1.4H60a4.55 4.55 0 00-.32 1.4z"/><path class="gcls-3" d="M27.68 52.45a6.32 6.32 0 0012.64 0C40.32 49 34 38.24 34 38.24S27.68 49 27.68 52.45z"/><path d="M27.68 52.45a6.32 6.32 0 0012.64 0 6.6 6.6 0 00-.3-1.71H28a6.6 6.6 0 00-.32 1.71z"/><path class="gcls-3" d="M40.03 71.61h19.33"/></svg><svg viewBox="0 0 32 32" id="mail" xmlns="http://www.w3.org/2000/svg"><path fill="#fd9d05" d="M5.315 9.274L13.05 16l-7.737 6.728A1.008 1.008 0 015 21.993V10.007c0-.289.121-.549.315-.733zm22.372-.002c.194.184.313.445.313.735v11.986c0 .289-.121.549-.315.733L19.95 16l7.737-6.728zm-8.485 7.379L26.5 23h-20l7.298-6.349L16.5 19l2.702-2.349zM6.004 8A2 2 0 004 9.994v12.012C4 23.107 4.89 24 6.004 24h20.993a2 2 0 002.004-1.994V9.994c0-1.101-.89-1.994-2.004-1.994H6.004zM16.5 17.7L6.5 9h20l-10 8.7z"/></svg><svg viewBox="0 0 100 125" id="phone" xmlns="http://www.w3.org/2000/svg"><g fill="#fd9d05"><path d="M57.46 5.023a1.994 1.994 0 00-1.924 2.074 2 2 0 002.073 1.924c8.676-.353 17.331 3.177 23.762 9.607 6.431 6.432 9.933 15.092 9.608 23.762a2 2 0 001.924 2.074l.076.001a2 2 0 001.997-1.925c.366-9.778-3.562-19.525-10.777-26.74S67.232 4.655 57.46 5.023z"/><path d="M71.436 28.564c3.548 3.548 5.622 8.223 5.997 13.52a2 2 0 103.991-.284c-.445-6.271-2.92-11.826-7.159-16.064-4.239-4.239-9.793-6.715-16.064-7.159a2.007 2.007 0 00-2.136 1.854 2 2 0 001.854 2.137c5.294.374 9.968 2.449 13.517 5.996zM80.33 60.771c-2.198-2.198-5.12-3.408-8.228-3.408s-6.03 1.21-8.228 3.408l-3.576 3.575c-1.657 1.657-4.282 1.866-6.241.496a76.97 76.97 0 01-10.273-8.628 76.995 76.995 0 01-8.627-10.272c-1.37-1.959-1.162-4.584.496-6.241l3.575-3.576c4.537-4.536 4.537-11.918 0-16.454l-8.08-8.08a11.56 11.56 0 00-8.228-3.408 11.56 11.56 0 00-8.227 3.408l-3.684 3.683c-4.558 4.56-6.725 10.96-5.797 17.121 1.278 8.489 4.437 17.164 9.131 25.08 3.369 5.713 7.516 11.047 12.325 15.856 4.808 4.808 10.142 8.954 15.852 12.322 7.921 4.697 16.595 7.855 25.083 9.133.941.142 1.887.212 2.832.212 5.242 0 10.428-2.146 14.29-6.01l3.683-3.683a11.556 11.556 0 003.408-8.228c0-3.107-1.21-6.029-3.408-8.228l-8.078-8.078zm5.251 21.707l-3.684 3.683c-3.664 3.666-8.784 5.411-13.697 4.671-7.984-1.202-16.158-4.183-23.644-8.621-5.423-3.199-10.49-7.138-15.06-11.707-4.571-4.571-8.51-9.638-11.71-15.064-4.436-7.48-7.416-15.655-8.619-23.64-.739-4.911 1.007-10.032 4.671-13.697l3.683-3.683c2.978-2.977 7.821-2.977 10.798 0l8.08 8.08c2.977 2.977 2.977 7.821 0 10.798l-3.575 3.576c-3.032 3.031-3.429 7.811-.945 11.362a81.042 81.042 0 009.076 10.808l1.415-1.414-1.414 1.414a80.942 80.942 0 0010.809 9.077c3.553 2.485 8.332 2.087 11.362-.945l3.576-3.575c1.442-1.442 3.36-2.236 5.399-2.236s3.957.794 5.399 2.236l8.08 8.079a7.586 7.586 0 012.236 5.399 7.588 7.588 0 01-2.236 5.399z"/></g></svg><svg viewBox="0 0 32 32" id="search" xmlns="http://www.w3.org/2000/svg"><path d="M19.427 20.427a8.5 8.5 0 112-2l5.585 5.585c.55.55.546 1.431 0 1.976l-.023.023a1.398 1.398 0 01-1.976 0l-5.585-5.585zM14.5 20a6.5 6.5 0 100-13 6.5 6.5 0 000 13z"/></svg><svg viewBox="0 0 32 32" id="viber" xmlns="http://www.w3.org/2000/svg"><path fill="#fff" d="M15.197.003C12.63.038 7.108.459 4.018 3.29 1.725 5.57.923 8.931.83 13.094.75 17.241.657 25.027 8.163 27.149v3.227s-.051 1.293.803 1.56c1.053.333 1.653-.665 2.653-1.732l1.867-2.107c5.133.427 9.067-.559 9.52-.705 1.04-.333 6.908-1.081 7.868-8.869.987-8.041-.48-13.108-3.12-15.401l-.013-.003c-.8-.733-4-3.067-11.16-3.093 0 0-.528-.033-1.384-.021zm.09 2.262c.727-.004 1.173.027 1.173.027 6.053.013 8.948 1.84 9.628 2.453 2.227 1.905 3.371 6.475 2.533 13.189-.8 6.507-5.56 6.92-6.44 7.2-.373.12-3.84.973-8.203.693 0 0-3.252 3.921-4.265 4.935-.16.173-.347.227-.467.2-.173-.04-.227-.253-.213-.547l.027-5.359c-6.361-1.76-5.988-8.403-5.921-11.869.08-3.467.733-6.309 2.667-8.229 2.609-2.36 7.3-2.68 9.481-2.693zm.48 3.467h-.001a.4.4 0 00.001.799l.143-.001c2.034 0 3.88.809 5.232 2.123l-.002-.002c1.453 1.413 2.161 3.307 2.188 5.787a.4.4 0 00.4.4v-.012a.4.4 0 00.4-.4 8.575 8.575 0 00-2.415-6.349l.002.002c-1.587-1.547-3.589-2.347-5.948-2.347zm-5.272.92a1.263 1.263 0 00-.826.163l.006-.003h-.016c-.547.32-1.051.72-1.531 1.253-.36.427-.561.852-.615 1.265a1.634 1.634 0 00.07.733l-.003-.012.027.013a18.197 18.197 0 001.646 3.549l-.046-.082a20.684 20.684 0 003.101 4.237l-.008-.009.04.053.053.04.08.08a20.864 20.864 0 004.136 3.053l.104.054c1.76.96 2.829 1.413 3.469 1.6v.013c.187.053.357.08.531.08a2.447 2.447 0 001.471-.631l-.002.002a6.03 6.03 0 001.24-1.531v-.013c.307-.573.2-1.121-.24-1.495a18.139 18.139 0 00-2.781-2.007l-.085-.046c-.68-.373-1.373-.147-1.653.227l-.6.759c-.307.373-.867.32-.867.32l-.016.013c-4.16-1.067-5.267-5.279-5.267-5.279s-.053-.573.333-.867l.747-.6c.36-.293.613-.987.227-1.667a18.073 18.073 0 00-2.071-2.887l.017.02a1.127 1.127 0 00-.665-.399l-.007-.001zm5.964 1.187a.401.401 0 00.001.8h.001a5.027 5.027 0 013.532 1.532l.001.001a4.646 4.646 0 011.199 3.44l.001-.014c.001.22.18.399.4.399l.013.016a.4.4 0 00.4-.4v-.001c.04-1.587-.453-2.92-1.427-3.987s-2.333-1.667-4.067-1.787l-.028-.001-.029.001h.001zm.653 2.158H17.1a.407.407 0 00-.012.815h.001c1.32.067 1.96.733 2.04 2.107a.4.4 0 00.4.387h.013a.4.4 0 00.388-.4l-.001-.028v.001c-.093-1.787-1.067-2.788-2.8-2.881h-.016z"/></svg><svg viewBox="0 0 24 28" id="youtube" xmlns="http://www.w3.org/2000/svg"><path d="M15.172 19.437v3.297c0 .703-.203 1.047-.609 1.047-.234 0-.469-.109-.703-.344v-4.703c.234-.234.469-.344.703-.344.406 0 .609.359.609 1.047zm5.281.016v.719h-1.406v-.719c0-.703.234-1.062.703-1.062s.703.359.703 1.062zM5.359 16.047h1.672v-1.469H2.156v1.469h1.641v8.891H5.36v-8.891zm4.5 8.891h1.391v-7.719H9.859v5.906c-.313.438-.609.656-.891.656-.187 0-.297-.109-.328-.328-.016-.047-.016-.219-.016-.547v-5.688H7.233v6.109c0 .547.047.906.125 1.141.125.391.453.578.906.578.5 0 1.031-.313 1.594-.953v.844zm6.703-2.313v-3.078c0-.719-.031-1.234-.141-1.547-.172-.578-.562-.875-1.109-.875-.516 0-1 .281-1.453.844v-3.391h-1.391v10.359h1.391v-.75c.469.578.953.859 1.453.859.547 0 .938-.297 1.109-.859.109-.328.141-.844.141-1.563zm5.282-.156v-.203h-1.422c0 .562-.016.875-.031.953-.078.375-.281.562-.625.562-.484 0-.719-.359-.719-1.078v-1.359h2.797v-1.609c0-.828-.141-1.422-.422-1.813-.406-.531-.953-.797-1.656-.797-.719 0-1.266.266-1.672.797-.297.391-.438.984-.438 1.813v2.703c0 .828.156 1.437.453 1.813.406.531.953.797 1.687.797s1.313-.281 1.687-.828a1.8 1.8 0 00.328-.844c.031-.141.031-.453.031-.906zm-9.5-14.266V4.922c0-.719-.203-1.078-.672-1.078-.453 0-.672.359-.672 1.078v3.281c0 .719.219 1.094.672 1.094.469 0 .672-.375.672-1.094zm11.234 11.735c0 1.797-.016 3.719-.406 5.469-.297 1.234-1.297 2.141-2.5 2.266-2.875.328-5.781.328-8.672.328s-5.797 0-8.672-.328c-1.203-.125-2.219-1.031-2.5-2.266-.406-1.75-.406-3.672-.406-5.469 0-1.813.016-3.719.406-5.469.297-1.234 1.297-2.141 2.516-2.281 2.859-.313 5.766-.313 8.656-.313s5.797 0 8.672.313c1.203.141 2.219 1.047 2.5 2.281.406 1.75.406 3.656.406 5.469zM7.984 0h1.594L7.687 6.234v4.234H6.124V6.234c-.141-.766-.453-1.859-.953-3.313-.344-.969-.688-1.953-1.016-2.922h1.656L6.92 4.108zm5.782 5.203v2.734c0 .828-.141 1.453-.438 1.844-.391.531-.938.797-1.656.797-.703 0-1.25-.266-1.641-.797-.297-.406-.438-1.016-.438-1.844V5.203c0-.828.141-1.437.438-1.828.391-.531.938-.797 1.641-.797.719 0 1.266.266 1.656.797.297.391.438 1 .438 1.828zM19 2.672v7.797h-1.422V9.61c-.562.656-1.094.969-1.609.969-.453 0-.781-.187-.922-.578-.078-.234-.125-.609-.125-1.172V2.673h1.422v5.734c0 .328 0 .516.016.547.031.219.141.344.328.344.281 0 .578-.219.891-.672V2.673h1.422z"/></svg><svg viewBox="0 0 28 28" id="youtube-play" xmlns="http://www.w3.org/2000/svg"><path d="M11.109 17.625l7.562-3.906-7.562-3.953v7.859zM14 4.156c5.891 0 9.797.281 9.797.281.547.063 1.75.063 2.812 1.188 0 0 .859.844 1.109 2.781.297 2.266.281 4.531.281 4.531v2.125s.016 2.266-.281 4.531c-.25 1.922-1.109 2.781-1.109 2.781-1.062 1.109-2.266 1.109-2.812 1.172 0 0-3.906.297-9.797.297-7.281-.063-9.516-.281-9.516-.281-.625-.109-2.031-.078-3.094-1.188 0 0-.859-.859-1.109-2.781C-.016 17.327 0 15.062 0 15.062v-2.125s-.016-2.266.281-4.531C.531 6.469 1.39 5.625 1.39 5.625 2.452 4.5 3.656 4.5 4.202 4.437c0 0 3.906-.281 9.797-.281z"/></svg></svg>